<?xml version="1.0" encoding="UTF-8" standalone="no"?>
<!-- Created with Inkscape (http://www.inkscape.org/) -->

<svg
   xmlns:dc="http://purl.org/dc/elements/1.1/"
   xmlns:cc="http://creativecommons.org/ns#"
   xmlns:rdf="http://www.w3.org/1999/02/22-rdf-syntax-ns#"
   xmlns:svg="http://www.w3.org/2000/svg"
   xmlns="http://www.w3.org/2000/svg"
   xmlns:sodipodi="http://sodipodi.sourceforge.net/DTD/sodipodi-0.dtd"
   xmlns:inkscape="http://www.inkscape.org/namespaces/inkscape"
   width="210mm"
   height="297mm"
   viewBox="0 0 210 297"
   version="1.1"
   id="svg8"
   sodipodi:docname="chat-noir-lettering.svg"
   inkscape:version="0.92.2 (5c3e80d, 2017-08-06)">
    <path
       inkscape:connector-curvature="0"
       id="path3815"
       d="m 148.92261,127.56959 c -0.29104,-0.0581 -0.85625,-0.4136 -1.25601,-0.79008 -0.85819,-0.8082 -13.51836,-25.17095 -14.50101,-27.905183 -0.19611,-0.545703 -0.48148,-1.004104 -0.63415,-1.018667 -1.38386,-0.132019 -4.83842,0.126717 -5.10206,0.382133 -0.23158,0.224351 -0.37105,2.123437 -0.47948,6.528797 -0.23282,9.45919 -0.54736,11.53765 -1.93622,12.79456 -1.16402,1.05342 -2.82913,0.40164 -2.57751,-1.00892 0.22748,-1.27527 1.17426,-14.7883 1.46568,-20.919049 0.26742,-5.626192 0.66075,-8.032548 1.44037,-8.812167 0.37883,-0.378825 0.47537,-0.383328 0.82045,-0.03825 0.2847,0.284708 0.46051,1.487906 0.64627,4.423022 0.14035,2.21756 0.32857,4.150672 0.41827,4.295809 0.24504,0.39647 3.22693,0.31759 5.72503,-0.151445 4.29861,-0.807098 8.52201,-3.593277 9.19654,-6.066965 0.59639,-2.187113 0.4121,-3.020925 -1.11163,-5.029504 -2.55784,-3.371741 -5.00973,-4.434332 -9.00011,-3.900424 -4.46681,0.597652 -7.92851,2.579431 -10.89568,6.237638 -1.01864,1.255882 -2.03663,2.286122 -2.26219,2.289417 -0.72354,0.01058 -1.04516,-0.595618 -1.04262,-1.965147 0.005,-2.814445 2.33814,-5.431573 6.7444,-7.566086 5.71633,-2.76915 10.24634,-3.048282 14.61868,-0.900784 1.56226,0.767313 2.18744,1.275003 3.36541,2.732957 1.95532,2.420065 2.5081,3.713576 2.5153,5.885856 0.007,2.110163 -0.46803,3.561464 -1.72712,5.276683 -1.08544,1.478667 -3.8194,3.395253 -6.01514,4.216784 -0.83179,0.311213 -1.51234,0.695544 -1.51234,0.854075 0,0.289163 3.24214,6.81812 4.37081,8.80186 4.4505,7.82212 7.47894,12.74335 9.76603,15.86984 1.70614,2.33232 2.02787,3.10217 1.44658,3.46143 -0.16037,0.0991 -0.45331,0.56727 -0.65097,1.04035 -0.36837,0.88163 -0.90304,1.16751 -1.83558,0.98146 z M 34.816545,117.65974 c -0.178249,-0.22018 -0.190943,-2.36478 -0.03798,-6.41614 0.492612,-13.047088 0.820133,-25.539519 0.90765,-34.619907 0.104107,-10.801608 0.03998,-10.491552 2.169801,-10.491552 1.392566,0 1.89405,0.238575 3.684477,1.752846 1.579881,1.336201 6.174807,8.540215 9.935688,15.577362 5.449044,10.195944 13.201317,24.238781 13.764715,24.934061 0.1461,0.1803 0.356606,0.2716 0.467791,0.20288 0.446556,-0.27599 0.436444,-18.343147 -0.01437,-25.666108 -0.354111,-5.752142 -0.135083,-10.644068 0.546872,-12.214352 0.772401,-1.778539 1.930845,-2.080908 3.110323,-0.811829 l 0.549052,0.590765 -0.239839,19.182291 c -0.131913,10.550263 -0.369361,20.372503 -0.527664,21.827213 l -0.287822,2.64491 0.94651,0.79467 c 1.681882,1.41207 1.042117,2.39684 -1.040431,1.60151 -2.740499,-1.04661 -4.37242,-3.19674 -9.44825,-12.44851 -1.67659,-3.05594 -4.055464,-7.342189 -5.286384,-9.525002 -1.230921,-2.182811 -3.463745,-6.171406 -4.961832,-8.863541 -1.498086,-2.692135 -3.266802,-5.728229 -3.930479,-6.746875 -3.146632,-4.829611 -5.691391,-8.35547 -5.88705,-8.156729 -0.118705,0.120576 -0.351116,9.982354 -0.51647,21.915063 -0.333389,24.058944 -0.242282,22.990814 -2.093896,24.548844 -0.939396,0.79045 -1.404076,0.89007 -1.810418,0.38813 z m 74.927935,-0.91749 c -0.48718,-0.48717 -0.46936,-1.9092 0.14678,-11.71636 0.13257,-2.11005 0.251,-6.33677 0.26318,-9.392708 0.0302,-7.570893 0.38314,-12.224975 0.97689,-12.881062 0.66381,-0.733496 1.47025,-0.497528 2.00006,0.585224 0.81388,1.663308 0.99607,6.096378 0.73109,17.789006 -0.30812,13.59635 -0.43735,14.81365 -1.66378,15.67268 -0.75677,0.53006 -1.89368,0.50376 -2.45422,-0.0568 z m -24.969151,-1.17326 c -6.978552,-2.50987 -10.597505,-7.80024 -10.597505,-15.49199 0,-3.413274 0.489575,-5.442441 1.972366,-8.174961 1.965063,-3.62127 5.036584,-6.671577 8.303614,-8.246262 2.541403,-1.224939 5.473174,-1.625829 8.579183,-1.173125 2.938339,0.428268 4.615376,1.307729 6.954886,3.647239 1.570627,1.570635 2.192457,2.454531 3.279977,4.662339 1.75296,3.558736 2.24862,5.941953 2.05234,9.86804 -0.26125,5.22582 -1.50299,8.32892 -4.55267,11.37708 -3.035033,3.03352 -6.638488,4.38522 -11.597867,4.35051 -1.712603,-0.012 -2.622047,-0.18146 -4.394324,-0.81887 z m 8.796041,-2.60837 c 4.573275,-1.41254 7.18662,-5.63705 7.89312,-12.75936 0.28958,-2.919258 0.27595,-3.501407 -0.11993,-5.121483 -0.79856,-3.267985 -2.567647,-6.266632 -4.766267,-8.078917 -2.10352,-1.733899 -6.914547,-2.272946 -10.442612,-1.170033 -1.700178,0.531496 -4.746895,3.287266 -6.056169,5.477839 -1.961769,3.282269 -2.979687,8.862444 -2.243148,12.296814 0.565909,2.63874 3.327423,6.4057 5.911603,8.06396 2.686116,1.72368 6.710548,2.25265 9.823403,1.29118 z M 77.497398,82.205578 c -0.82962,-2.653514 -0.830942,-7.839636 -0.0042,-16.396684 0.479332,-4.961166 1.029925,-14.930186 1.04159,-18.859046 l 0.0087,-2.910417 -2.248958,-0.310784 c -1.236927,-0.170932 -4.825939,-0.31976 -7.975584,-0.33073 l -5.726636,-0.01994 -0.101942,5.093229 c -0.11162,5.576712 -0.300857,6.395916 -1.623957,7.030061 -1.419296,0.68025 -1.505225,0.348817 -1.505225,-5.805685 v -5.523858 h -1.737213 c -2.334792,0 -3.276973,-0.506277 -3.285847,-1.765636 -0.0076,-1.081251 1.202034,-2.140201 2.849525,-2.494518 0.831628,-0.178856 1.654964,-0.434255 1.829639,-0.567552 0.232968,-0.177785 0.338717,-2.591097 0.396875,-9.05703 0.07267,-8.078671 0.119385,-8.858942 0.559541,-9.344948 0.573159,-0.632861 0.423195,-0.760301 -1.495968,-1.271288 -2.040435,-0.543275 -4.54952,-0.451046 -7.399869,0.272004 -6.23994,1.582891 -11.191667,5.45987 -13.880121,10.86751 -1.117303,2.247376 -2.109434,5.117703 -2.455157,7.102988 -0.551121,3.164769 0.469197,9.768033 2.007665,12.993158 0.350283,0.734306 1.425725,2.382142 2.389871,3.661855 3.969651,5.268928 9.875496,7.817226 16.419681,7.084883 5.1631,-0.577792 8.120879,-1.721244 11.024536,-4.261993 2.506549,-2.193274 3.946411,-2.486234 4.10546,-0.835314 0.255037,2.647252 -4.159948,6.487354 -9.458285,8.226708 -4.057274,1.331934 -11.376293,1.213099 -14.438069,-0.234423 -0.291041,-0.137594 -1.225421,-0.550455 -2.076398,-0.917464 -2.45784,-1.060019 -4.94134,-2.861458 -6.793149,-4.927497 -4.214191,-4.70172 -5.756017,-8.036721 -6.747902,-14.595848 -0.801201,-5.298175 -0.354652,-8.98866 1.582422,-13.077862 3.340934,-7.052782 8.216127,-11.667099 14.570532,-13.790849 3.656811,-1.222168 5.238687,-1.449612 9.300608,-1.337252 3.585935,0.09919 3.698552,0.120624 5.744787,1.09325 2.729245,1.29728 4.354208,2.514386 6.092345,4.563206 2.149415,2.533609 2.895751,5.182321 1.543762,5.478741 -0.84596,0.185474 -1.662432,-0.404987 -2.838008,-2.052409 -1.771002,-2.481836 -4.213862,-4.360338 -5.67032,-4.360338 -0.454757,0 -0.493903,0.09848 -0.289218,0.727606 0.416438,1.279968 0.79408,7.01863 0.79408,12.066848 0,2.694001 0.108794,5.184332 0.241766,5.53407 l 0.241763,0.635892 5.777508,0.193238 c 3.177627,0.106282 6.730005,0.285216 7.894171,0.397634 1.172912,0.113263 2.252086,0.100717 2.42039,-0.02814 0.414568,-0.317397 0.648848,-5.778169 0.724249,-16.881316 0.0634,-9.335158 0.220128,-10.874879 1.143029,-11.229029 0.727565,-0.279194 1.60927,0.631489 1.93797,2.001666 0.425479,1.773596 0.453806,22.539161 0.04092,29.997154 -0.169183,3.055938 -0.428771,7.877969 -0.576863,10.715625 -0.413978,7.932407 -0.756645,12.613268 -1.346147,18.388542 -0.512207,5.017995 -0.5906,5.397586 -1.515803,7.339703 -0.955802,2.006355 -1.284973,2.38619 -1.492544,1.722276 z M 112.8708,62.706461 c -0.61323,-0.711919 -1.34461,-1.690896 -1.62528,-2.175505 -0.68751,-1.18704 -3.202,-8.597968 -4.24813,-12.520466 -0.46538,-1.74498 -0.97053,-3.322558 -1.12255,-3.50573 -0.20743,-0.249933 -1.77031,-0.332025 -6.263267,-0.328985 -3.292781,0.0021 -6.139549,0.100931 -6.326152,0.219337 -0.205848,0.130617 -0.756637,2.744282 -1.400495,6.645778 -0.959956,5.816909 -1.237501,6.902145 -2.10021,8.212084 -0.143756,0.218281 -0.378579,0.727348 -0.521829,1.131261 -0.143251,0.40391 -0.470601,0.801658 -0.727446,0.883885 -0.256847,0.08223 -0.737288,0.279178 -1.067652,0.437666 -1.166291,0.559522 -1.252802,-0.04096 -0.474771,-3.295465 0.393642,-1.646592 1.107126,-5.315524 1.585519,-8.15318 0.843809,-5.005171 0.855395,-5.175404 0.38763,-5.695659 -0.596752,-0.663718 -0.41864,-1.635795 0.435007,-2.374133 0.482198,-0.417063 0.8138,-1.397966 1.565283,-4.630208 0.524412,-2.255573 1.130501,-4.720908 1.346864,-5.478522 0.557284,-1.951386 1.216869,-5.887957 1.035672,-6.181141 -0.08382,-0.135623 -0.591857,-0.258455 -1.128972,-0.272961 -1.561066,-0.04216 -2.291411,-0.336504 -2.381845,-0.959939 -0.108951,-0.751081 0.796599,-1.322719 2.395339,-1.512081 2.168879,-0.256892 9.751385,-0.671773 12.322635,-0.674241 3.3176,-0.0032 4.00606,0.370849 4.01345,2.180447 0.005,1.246631 -0.6579,1.946536 -2.24629,2.371367 -1.40754,0.376458 -1.4371,0.541883 -0.51293,2.870131 0.37197,0.937098 1.24825,3.727877 1.9473,6.201731 0.69905,2.473855 2.05046,7.057761 3.00315,10.186459 0.9527,3.128698 1.87041,6.224323 2.03937,6.879166 0.16896,0.654844 0.72765,2.540577 1.24155,4.190516 0.68619,2.203143 0.89092,3.257214 0.77082,3.96875 -0.09,0.532874 -0.19105,1.230837 -0.22466,1.551033 -0.12648,1.204558 -0.57003,1.160285 -1.71711,-0.171395 z m -7.83117,-21.580678 c 0.24514,-0.638813 -3.02343,-14.470295 -3.53953,-14.978117 -0.31782,-0.312715 -5.15396,-0.485057 -5.681955,-0.202483 -0.380198,0.203476 -0.476766,0.60404 -0.489426,2.030121 -0.0087,0.977146 -0.11429,2.31241 -0.234696,2.967253 -0.90492,4.921409 -1.634316,9.851901 -1.506665,10.184559 0.229706,0.598604 11.222542,0.597326 11.452272,-0.0013 z m 21.43475,20.473375 c -1.23303,-0.716746 -1.29322,-1.386527 -1.38788,-15.44306 -0.0984,-14.617376 -0.26656,-19.080076 -0.73013,-19.381266 -0.16752,-0.108845 -2.74537,-0.261854 -5.72855,-0.340019 -4.49575,-0.117798 -5.57392,-0.222288 -6.30026,-0.610588 -1.19599,-0.639381 -1.06534,-1.451472 0.34714,-2.15771 1.0024,-0.501203 1.5407,-0.52693 10.18645,-0.486845 9.1028,0.0422 15.198,0.3798 16.16086,0.895103 0.66218,0.354389 0.64652,1.104062 -0.036,1.721701 -0.46587,0.421603 -1.29021,0.531821 -5.74854,0.768611 l -5.20468,0.27643 0.0772,3.307291 c 0.19486,8.344266 0.58322,18.474161 0.84699,22.092709 0.38526,5.285285 0.17124,8.011498 -0.70294,8.954272 -0.70844,0.764017 -1.03283,0.837539 -1.77974,0.403371 z"
       style="stroke:#000000;stroke-width:0.26458332;stroke-opacity:1" />
    <path
       inkscape:connector-curvature="0"
       id="path3813"
       d="m 34.797319,117.65974 c -0.178249,-0.22018 -0.190943,-2.36478 -0.03798,-6.41614 0.492612,-13.047088 0.820133,-25.539519 0.90765,-34.619907 0.104107,-10.801608 0.03998,-10.491552 2.169801,-10.491552 1.392566,0 1.89405,0.238575 3.684477,1.752846 1.032483,0.873233 2.124953,2.383515 4.519393,6.24782 1.736771,2.802914 3.913136,6.524959 4.836367,8.271209 3.990138,7.547163 13.815082,25.354074 14.342889,25.995314 0.149725,0.1819 0.365339,0.33073 0.479145,0.33073 0.451924,0 0.439266,-18.278488 -0.01786,-25.796878 -0.306348,-5.038468 -0.180901,-9.692005 0.312862,-11.605934 0.285631,-1.107173 1.280671,-2.284691 1.93063,-2.284691 0.222599,0 0.758235,0.327422 1.1903,0.727605 l 0.785571,0.727604 -0.242625,19.05 C 69.521096,100.29224 69.282794,109.79625 69.11136,111.34666 l -0.303951,2.7489 0.955805,0.87564 c 1.663623,1.52408 1.057624,2.37427 -1.104694,1.54985 -1.674429,-0.63842 -3.854198,-2.87428 -5.531961,-5.67433 -0.741156,-1.23692 -2.595525,-4.51114 -4.120822,-7.27604 -1.525301,-2.76489 -4.410723,-7.944112 -6.412053,-11.509373 -2.00133,-3.56526 -4.297145,-7.672916 -5.101812,-9.128125 -1.448163,-2.618946 -7.529601,-11.884009 -7.985358,-12.165681 -0.129994,-0.08034 -0.295708,-0.05004 -0.368253,0.06734 -0.07255,0.117382 -0.265402,9.852684 -0.428571,21.634005 -0.180765,13.051794 -0.404733,21.830314 -0.573266,22.469324 -0.292972,1.11083 -1.994936,3.0523 -2.675761,3.0523 -0.217583,0 -0.516089,-0.14882 -0.663346,-0.33073 z M 51.404432,65.605473 C 49.283077,65.435339 47.366978,64.992977 46.774224,64.536512 46.628703,64.424451 45.762396,64.030329 44.849096,63.660686 41.285025,62.21818 37.806101,59.172776 35.071675,55.101654 32.793889,51.710396 31.90154,49.187803 31.158492,44.039432 30.381174,38.653614 30.805241,35.112079 32.708579,31.094091 36.104346,23.925557 41.063272,19.26159 47.435682,17.242964 c 4.113056,-1.302916 5.148871,-1.453806 9.146202,-1.332347 3.584437,0.108913 3.743176,0.138738 5.756161,1.081496 2.744057,1.285148 4.441057,2.566248 6.160238,4.650489 2.380419,2.885895 2.902092,5.331204 1.137338,5.331204 -0.515046,0 -0.989195,-0.216182 -1.305687,-0.595312 -0.273328,-0.327421 -1.111571,-1.350835 -1.86276,-2.274252 -2.016656,-2.479021 -3.515502,-3.315535 -7.918992,-4.419634 -5.772155,-1.447268 -14.374847,1.764103 -18.667813,6.968666 -2.455899,2.977401 -4.851623,8.315836 -5.259345,11.719493 -0.232585,1.941615 0.259882,6.745593 0.947065,9.23854 0.754058,2.735559 1.522282,4.250349 3.513236,6.927422 2.809061,3.777116 6.72047,6.191618 11.321613,6.988797 2.962917,0.513343 6.529934,0.216386 10.209716,-0.849975 2.604958,-0.754886 3.547782,-1.260888 5.608445,-3.009977 2.088462,-1.772685 2.77981,-2.168267 3.620918,-2.071846 1.13543,0.130161 1.16808,1.53957 0.07393,3.191438 -3.221093,4.862965 -10.314617,7.475707 -18.511512,6.818307 z"
       style="stroke:#000000;stroke-width:0.26458332;stroke-opacity:1" />
</svg>
